<svg width="147" height="147" viewBox="0 0 147 147" fill="none" xmlns="http://www.w3.org/2000/svg">
<path d="M147 17.2266C147 7.72728 139.273 0 129.773 0C120.274 0 112.547 7.72728 112.547 17.2266C112.547 22.3586 114.806 26.9703 118.378 30.1285L96.5102 83.3077C96.1166 83.2808 95.7207 83.2617 95.3203 83.2617C91.9939 83.2617 88.8873 84.2116 86.2506 85.8513L73.8981 75.9427C74.3849 74.3512 74.6484 72.6645 74.6484 70.916C74.6484 61.4167 66.9212 53.6895 57.4219 53.6895C47.9226 53.6895 40.1953 61.4167 40.1953 70.916C40.1953 74.7539 41.4581 78.3024 43.589 81.1701L21.9919 113.222C20.4767 112.786 18.8797 112.547 17.2266 112.547C7.72728 112.547 0 120.274 0 129.773C0 139.273 7.72728 147 17.2266 147C26.7258 147 34.4531 139.273 34.4531 129.773C34.4531 126.105 33.2968 122.704 31.3353 119.907L51.6797 89.7138V147H63.1641V87.1545C64.5536 86.6622 65.8636 85.9982 67.0647 85.184L79.0605 94.8067C78.4369 96.5865 78.0938 98.4976 78.0938 100.488C78.0938 107.974 82.895 114.357 89.5781 116.727V147H101.062V116.727C107.746 114.357 112.547 107.974 112.547 100.488C112.547 95.5155 110.426 91.0305 107.046 87.8835L124.031 46.5768V147H135.516V33.4651C142.199 31.0953 147 24.7127 147 17.2266ZM17.2266 135.516C14.0605 135.516 11.4844 132.939 11.4844 129.773C11.4844 126.607 14.0605 124.031 17.2266 124.031C20.3926 124.031 22.9688 126.607 22.9688 129.773C22.9688 132.939 20.3926 135.516 17.2266 135.516ZM57.4219 76.6582C54.2558 76.6582 51.6797 74.0821 51.6797 70.916C51.6797 67.75 54.2558 65.1738 57.4219 65.1738C60.5879 65.1738 63.1641 67.75 63.1641 70.916C63.1641 74.0821 60.5879 76.6582 57.4219 76.6582ZM95.3203 106.23C92.1543 106.23 89.5781 103.654 89.5781 100.488C89.5781 97.3222 92.1543 94.7461 95.3203 94.7461C98.4864 94.7461 101.062 97.3222 101.062 100.488C101.062 103.654 98.4864 106.23 95.3203 106.23ZM129.773 22.9688C126.607 22.9688 124.031 20.3926 124.031 17.2266C124.031 14.0605 126.607 11.4844 129.773 11.4844C132.939 11.4844 135.516 14.0605 135.516 17.2266C135.516 20.3926 132.939 22.9688 129.773 22.9688ZM5.16236 61.1431C1.83369 57.8234 0 53.4427 0 48.8086V46.5117H11.4844V48.8086C11.4844 52.0576 14.2456 54.802 17.5137 54.802C20.7257 54.802 23.543 51.9444 23.543 48.6863C23.543 46.182 20.7885 44.4773 14.9431 41.4424L14.8669 41.4032C10.2731 39.0177 1.72266 34.5776 1.72266 23.7314C1.72266 17.1974 5.89584 11.6033 11.7715 9.35124V0H23.2559V9.3232C25.1838 10.0443 26.9614 11.1277 28.4866 12.5442C31.5932 15.4265 33.3047 19.3328 33.3047 23.543V24.9785H21.8203V23.543C21.8203 21.1844 19.6311 19.7747 17.5137 19.7747C15.1394 19.7747 13.207 21.55 13.207 23.7314C13.207 26.8055 14.637 28.3431 20.1593 31.2108L20.2345 31.2501C23.4432 32.9155 26.7595 34.6382 29.4635 37.0136C33.1555 40.2581 35.0273 44.1846 35.0273 48.6863C35.0273 53.3115 33.2038 57.7045 29.893 61.0534C27.9797 62.9891 25.7154 64.4235 23.2559 65.2972V74.6484H11.7715V65.3107C9.32208 64.4516 7.06783 63.0429 5.16236 61.1431Z" fill="url(#paint0_linear)"/>
<defs>
<linearGradient id="paint0_linear" x1="73.5" y1="0" x2="73.5" y2="147" gradientUnits="userSpaceOnUse">
<stop stop-color="#2AF598"/>
<stop offset="1" stop-color="#009EFD"/>
</linearGradient>
</defs>
</svg>
