<svg width="51" height="46" viewBox="0 0 51 46" fill="none" xmlns="http://www.w3.org/2000/svg">
<ellipse cx="25.3979" cy="23" rx="25.2573" ry="23" fill="#F5F5F5"/>
<path d="M15.5146 19.5V33C15.5146 33.5523 15.9623 34 16.5146 34H34.2812C34.8335 34 35.2812 33.5523 35.2812 33V19.5" stroke="black" stroke-width="2"/>
<path d="M37.4775 21L26.241 12.2295C26.0666 12.0934 25.8234 12.0881 25.6432 12.2165L13.3183 21" stroke="black" stroke-width="2" stroke-linecap="round"/>
<path d="M31.8886 15H33.183V16.9858L31.8886 16.0035V15Z" stroke="black" stroke-width="2"/>
<path d="M22.1035 25.5C22.1035 25.2239 22.3273 25 22.6035 25H28.1923C28.4685 25 28.6923 25.2239 28.6923 25.5V34H22.1035V25.5Z" stroke="black" stroke-width="2"/>
</svg>
